0
SECTION
2
HEADER
9
$INSUNITS
70
4
9
$ACADVER
1
AC1014
9
$HANDSEED
5
FFFF
0
ENDSEC
0
SECTION
2
TABLES
0
TABLE
2
VPORT
5
8
100
AcDbSymbolTable
0
ENDTAB
0
TABLE
2
LTYPE
5
5
100
AcDbSymbolTable
0
LTYPE
5
14
100
AcDbSymbolTableRecord
100
AcDbLinetypeTableRecord
2
BYBLOCK
70
0
0
LTYPE
5
15
100
AcDbSymbolTableRecord
100
AcDbLinetypeTableRecord
2
BYLAYER
70
0
0
ENDTAB
0
TABLE
2
LAYER
5
2
100
AcDbSymbolTable
70
2
0
LAYER
5
50
100
AcDbSymbolTableRecord
100
AcDbLayerTableRecord
2
0
70
0
6
CONTINUOUS
0
ENDTAB
0
TABLE
2
STYLE
5
3
100
AcDbSymbolTable
70
1
0
STYLE
5
11
100
AcDbSymbolTableRecord
100
AcDbTextStyleTableRecord
2
STANDARD
70
0
0
ENDTAB
0
TABLE
2
VIEW
5
6
100
AcDbSymbolTable
70
0
0
ENDTAB
0
TABLE
2
UCS
5
7
100
AcDbSymbolTable
70
0
0
ENDTAB
0
TABLE
2
APPID
5
9
100
AcDbSymbolTable
70
2
0
APPID
5
12
100
AcDbSymbolTableRecord
100
AcDbRegAppTableRecord
2
ACAD
70
0
0
ENDTAB
0
TABLE
2
DIMSTYLE
5
A
100
AcDbSymbolTable
70
1
0
ENDTAB
0
TABLE
2
BLOCK_RECORD
5
1
100
AcDbSymbolTable
70
1
0
BLOCK_RECORD
5
1F
100
AcDbSymbolTableRecord
100
AcDbBlockTableRecord
2
*MODEL_SPACE
0
BLOCK_RECORD
5
1B
100
AcDbSymbolTableRecord
100
AcDbBlockTableRecord
2
*PAPER_SPACE
0
ENDTAB
0
ENDSEC
0
SECTION
2
BLOCKS
0
BLOCK
5
20
100
AcDbEntity
100
AcDbBlockBegin
2
*MODEL_SPACE
0
ENDBLK
5
21
100
AcDbEntity
100
AcDbBlockEnd
0
BLOCK
5
1C
100
AcDbEntity
100
AcDbBlockBegin
2
*PAPER_SPACE
0
ENDBLK
5
1D
100
AcDbEntity
100
AcDbBlockEnd
0
ENDSEC
0
SECTION
2
ENTITIES
0
LWPOLYLINE
5
100
100
AcDbEntity
8
0
100
AcDbPolyline
90
15
70
1
43
0.0
10
250.625
20
95.600000000000236
10
250.625
20
95.650000000000247
42
-0.41421356237321399
10
250.97499999999999
20
96.000000000000227
10
286.34095309700081
20
96.000000000000227
42
-0.41421356237316936
10
286.69095309700083
20
95.650000000000247
10
286.69095309700083
20
95.250000000001407
42
-0.14490950870375724
10
287.34252773626059
20
94.500000000000298
10
289.69095309700083
20
94.500000000000284
42
-0.41421356237316936
10
290.04095309700079
20
94.15000000000029
10
290.04095309700085
20
94.124498760000094
42
-0.41421356237312473
10
289.69095309700083
20
93.774498760000071
10
287.49999904000009
20
93.774498760000128
42
-1.3319787954790836
10
284.27256736570325
20
94.712416374247738
42
0.59144887960570214
10
283.97708067674841
20
95.250000000000284
10
250.97499999999999
20
95.250000000000313
42
-0.41421356237315454
0
LWPOLYLINE
5
101
100
AcDbEntity
8
0
100
AcDbPolyline
90
8
70
1
43
0.0
10
79.860935000000111
20
-0.74999999999995792
42
-0.41421356237312118
10
79.51093500000006
20
-0.39999999999996083
10
79.51093500000006
20
-0.34999999999996062
42
-0.41421356237306828
10
79.860935000000083
20
3.9898639947466563e-14
10
148.0500000000001
20
6.9735883734267645e-14
42
-0.41421356237309043
10
148.40000000000009
20
-0.34999999999992615
10
148.40000000000009
20
-0.39999999999992641
42
-0.41421356237308987
10
148.0500000000001
20
-0.7499999999999265
0
LWPOLYLINE
5
102
100
AcDbEntity
8
0
100
AcDbPolyline
90
12
70
1
43
0.0
10
188.72708067674839
20
95.250000000000227
10
156.75
20
95.250000000000213
42
-0.41421356237306534
10
156.40000000000001
20
95.600000000000222
10
156.40000000000001
20
95.650000000000205
42
-0.41421356237313967
10
156.75
20
96.000000000000156
10
225.27500000000003
20
96.000000000000227
42
-0.41421356237305046
10
225.62500000000003
20
95.650000000000205
10
225.625
20
95.600000000000222
42
-0.41421356237300588
10
225.27500000000003
20
95.250000000000213
10
192.27291932325173
20
95.250000000000227
42
0.59144887960573778
10
191.97743263429675
20
94.712416374247667
42
-1.8193158807047849
10
189.02256736570322
20
94.712416374247681
42
0.59144887960563497
0
LWPOLYLINE
5
103
100
AcDbEntity
8
0
100
AcDbPolyline
90
16
70
1
43
0.0
10
274.67813000000007
20
0.35000000000013909
10
274.67813000000007
20
1.1255000000001396
42
-0.41421356237316848
10
275.02813000000009
20
1.4755000000001386
10
281.95000000000022
20
1.4755000000001595
42
-0.41421356237313817
10
282.30000000000018
20
1.1255000000001418
10
282.30000000000013
20
1.1000000000001422
42
-0.41421356237313939
10
281.95000000000022
20
0.75000000000014178
10
276.02813000000015
20
0.75000000000015743
42
0.41421356237313967
10
275.67813000000007
20
0.4000000000001383
10
275.67813000000007
20
-0.39999999999986313
42
-0.414213562373139
10
275.3281300000001
20
-0.74999999999986289
10
237.63906500000004
20
-0.74999999999988654
42
-0.41421356237301304
10
237.28906500000008
20
-0.39999999999987657
10
237.28906500000008
20
-0.34999999999988174
42
-0.41421356237316892
10
237.63906500000013
20
1.1865508575681361e-13
10
274.3281300000001
20
1.3697376566312869e-13
42
0.41421356237300644
0
LWPOLYLINE
5
104
100
AcDbEntity
8
0
100
AcDbPolyline
90
8
70
1
43
0.0
10
156.40000000000012
20
-0.3999999999999222
10
156.40000000000012
20
-0.3499999999999221
42
-0.414213562373133
10
156.75000000000014
20
7.8340112175112608e-14
10
224.93906500000008
20
1.3475331961387838e-13
42
-0.41421356237305329
10
225.28906500000008
20
-0.34999999999988785
10
225.28906500000005
20
-0.39999999999988772
42
-0.41421356237305323
10
224.93906500000008
20
-0.74999999999988842
10
156.75000000000014
20
-0.74999999999992317
42
-0.41421356237310958
0
LWPOLYLINE
5
105
100
AcDbEntity
8
0
100
AcDbPolyline
90
16
70
1
43
0.0
10
67.160935000000066
20
3.3445468616832841e-14
42
-0.41421356237307899
10
67.510935000000075
20
-0.3499999999999665
10
67.510935000000075
20
-0.39999999999996677
42
-0.41421356237312185
10
67.160935000000052
20
-0.74999999999996725
10
29.471870000000081
20
-0.7499999999999829
42
-0.41421356237309481
10
29.121870000000072
20
-0.39999999999998614
10
29.121870000000072
20
0.40000000000001507
42
0.41421356237308055
10
28.771870000000071
20
0.75000000000001521
10
22.850000000000009
20
0.75000000000001243
42
-0.41421356237309004
10
22.500000000000014
20
1.1000000000000123
10
22.500000000000014
20
1.1255000000000124
42
-0.41421356237309159
10
22.850000000000009
20
1.4755000000000127
10
29.771870000000078
20
1.4755000000000145
42
-0.41421356237308748
10
30.121870000000076
20
1.1255000000000177
10
30.121870000000065
20
0.35000000000001674
42
0.41421356237311252
10
30.471870000000095
20
3.8857805861880479e-15
0
LWPOLYLINE
5
106
100
AcDbEntity
8
0
100
AcDbPolyline
90
12
70
1
43
0.0
10
112.82256736570325
20
94.712416374247624
42
0.59144887960563641
10
112.52708067674831
20
95.250000000000185
10
79.525000000000006
20
95.250000000000185
42
-0.41421356237304302
10
79.175000000000026
20
95.600000000000151
10
79.17500000000004
20
95.650000000000148
42
-0.41421356237312473
10
79.52500000000002
20
96.000000000000142
10
148.05000000000001
20
96.000000000000156
42
-0.41421356237306534
10
148.40000000000001
20
95.650000000000148
10
148.40000000000001
20
95.600000000000193
42
-0.41421356237310991
10
148.05000000000001
20
95.250000000000213
10
116.07291932325168
20
95.250000000000185
42
0.59144887960568648
10
115.77743263429676
20
94.712416374247624
42
-1.8193158807047707
0
LWPOLYLINE
5
107
100
AcDbEntity
8
0
100
AcDbPolyline
90
64
70
1
43
0.0
10
14.759046902997026
20
95.250000000000128
10
0.34999999999995263
20
95.250000000000128
42
0.4142135623730715
10
-6.1339822110539899e-14
20
94.900000000000091
10
-2.0816681711721685e-16
20
0.35000000000000148
42
0.41421356237309614
10
0.35000000000000142
20
-1.3183898417423734e-15
10
26.771870000000053
20
1.214306433183765e-14
42
-0.41421356237310791
10
27.121870000000072
20
-0.34999999999998699
10
27.121870000000072
20
-1.6624999999999885
42
-0.99999999999999989
10
27.121870000000072
20
-4.8374999999999915
10
27.121870000000072
20
-5.3999999999999906
42
0.41421356237309132
10
27.471870000000074
20
-5.749999999999992
10
148.0500000000001
20
-5.7499999999999405
42
0.41421356237307372
10
148.40000000000006
20
-5.3999999999999293
10
148.40000000000006
20
-2.4694638625167888
42
-0.41421356237309043
10
148.75000000000006
20
-2.1194638625167874
10
156.05000000000013
20
-2.1194638625167812
42
-0.41421356237311108
10
156.40000000000009
20
-2.4694638625167844
10
156.40000000000009
20
-5.3999999999999249
42
0.41421356237308854
10
156.75000000000009
20
-5.7499999999999218
10
277.32813000000016
20
-5.7499999999998606
42
0.41421356237293994
10
277.67813000000007
20
-5.3999999999998671
10
277.67813000000007
20
-4.8374999999998778
42
-0.99999999999999989
10
277.67813000000007
20
-1.6624999999998504
10
277.67813000000007
20
-0.34999999999985854
42
-0.41421356237316787
10
278.02813000000009
20
1.3877787807814457e-13
10
304.45000000000022
20
1.429412144204889e-13
42
0.41421356237313894
10
304.80000000000018
20
0.35000000000016129
10
304.80000000000018
20
94.900000000000261
42
0.41421356237309503
10
304.45000000000022
20
95.250000000000284
10
290.04095309700079
20
95.250000000000313
42
-0.41421356237318424
10
289.69095309700083
20
95.600000000000307
10
289.69095309700083
20
95.650000000000261
42
-0.41421356237308021
10
290.04095309700079
20
96.000000000000227
10
296.45000000000022
20
96.000000000000213
42
0.41421356237310991
10
296.80000000000013
20
96.350000000000264
10
296.80000000000018
20
96.912500000000222
42
-0.99999999999999989
10
296.80000000000013
20
100.0875000000002
10
296.80000000000013
20
100.65000000000026
42
0.41421356237303558
10
296.4500000000001
20
101.00000000000023
10
194.85000000000011
20
101.00000000000021
42
0.41421356237309503
10
194.50000000000003
20
100.6500000000002
10
194.50000000000011
20
97.812500000000156
42
-0.41421356237303558
10
194.15000000000006
20
97.462500000000205
10
186.85000000000008
20
97.46250000000019
42
-0.41421356237305046
10
186.50000000000009
20
97.812500000000213
10
186.50000000000011
20
100.65000000000025
42
0.41421356237309503
10
186.15000000000006
20
101.00000000000023
10
118.64999999999998
20
101.00000000000016
42
0.41421356237306534
10
118.29999999999998
20
100.65000000000015
10
118.3
20
97.812500000000156
42
-0.41421356237302071
10
117.95000000000002
20
97.462500000000162
10
110.65000000000001
20
97.462500000000162
42
-0.41421356237306534
10
110.30000000000001
20
97.812500000000156
10
110.30000000000001
20
100.65000000000015
42
0.41421356237310991
10
109.95000000000003
20
101.00000000000016
10
8.3499999999999552
20
101.0000000000001
42
0.41421356237307
10
7.999999999999944
20
100.65000000000013
10
7.9999999999999467
20
100.08750000000006
42
-0.99999999999999989
10
7.9999999999999556
20
96.912500000000108
10
7.9999999999999369
20
96.350000000000136
42
0.4142135623730811
10
8.349999999999957
20
96.000000000000099
10
14.759046902997026
20
96.000000000000099
42
-0.41421356237308948
10
15.109046902997026
20
95.650000000000105
10
15.109046902997038
20
95.600000000000094
42
-0.41421356237307461
0
LWPOLYLINE
5
108
100
AcDbEntity
8
0
100
AcDbPolyline
90
15
70
1
43
0.0
10
53.825000000000003
20
96.000000000000114
42
-0.41421356237307272
10
54.175000000000004
20
95.650000000000134
10
54.174999999999997
20
95.600000000000165
42
-0.41421356237310253
10
53.825000000000003
20
95.250000000000128
10
20.822919323251693
20
95.250000000000128
42
0.59144887960563253
10
20.527432634296787
20
94.712416374247567
42
-1.331978795479037
10
17.300000959999998
20
93.774498760000071
10
15.109046902997035
20
93.774498760000057
42
-0.41421356237308948
10
14.759046902997026
20
94.124498760000037
10
14.759046902997028
20
94.150000000000134
42
-0.41421356237309875
10
15.109046902997035
20
94.500000000000142
10
17.457472263739422
20
94.500000000000142
42
-0.14490950870339292
10
18.10904690299704
20
95.250000000000043
10
18.109046902997029
20
95.650000000000134
42
-0.41421356237309132
10
18.459046902997027
20
96.000000000000142
0
LWPOLYLINE
5
109
100
AcDbEntity
8
0
100
AcDbPolyline
90
8
70
1
43
0.0
10
204.59999904
20
93.774498760000057
42
-0.41421356237297613
10
204.24999904000003
20
94.124498760000094
10
204.24999904000003
20
94.15000000000029
42
-0.41421356237321399
10
204.59999904000003
20
94.500000000000227
10
271.65000096000006
20
94.500000000000284
42
-0.41421356237303558
10
272.00000096000002
20
94.150000000000318
10
272.00000096000002
20
94.124498760000037
42
-0.41421356237312473
10
271.65000096
20
93.774498760000057
0
LWPOLYLINE
5
110
100
AcDbEntity
8
0
100
AcDbPolyline
90
8
70
1
43
0.0
10
122.04999903999996
20
94.150000000000233
42
-0.41421356237309503
10
122.39999904000001
20
94.500000000000227
10
182.40000095999994
20
94.500000000000199
42
-0.41421356237313967
10
182.75000095999999
20
94.15000000000029
10
182.75000095999999
20
94.124498760000094
42
-0.41421356237324369
10
182.40000096
20
93.774498760000071
10
122.39999904
20
93.774498760000071
42
-0.41421356237305046
10
122.04999903999997
20
94.124498760000037
0
LWPOLYLINE
5
111
100
AcDbEntity
8
0
100
AcDbPolyline
90
8
70
1
43
0.0
10
114.90000000000009
20
1.1255000000000599
42
-0.41421356237313223
10
115.25000000000007
20
1.4755000000000575
10
189.55000000000013
20
1.4755000000000997
42
-0.4142135623730363
10
189.90000000000006
20
1.1255000000000974
10
189.90000000000006
20
1.1000000000000947
42
-0.41421356237316859
10
189.5500000000001
20
0.7500000000000957
10
115.25000000000006
20
0.75000000000005307
42
-0.41421356237306722
10
114.90000000000009
20
1.1000000000000567
0
CIRCLE
5
112
100
AcDbEntity
8
0
100
AcDbCircle
10
195.26250508000004
20
20.525000860000016
30
2.4651903288156615e-31
40
1.7499990400000009
210
0
220
0
230
1
0
LWPOLYLINE
5
113
100
AcDbEntity
8
0
100
AcDbPolyline
90
8
70
1
43
0.0
10
104.55000000000005
20
1.47550000000005
42
-0.41421356237308959
10
104.90000000000009
20
1.125500000000055
10
104.90000000000009
20
1.100000000000052
42
-0.41421356237308926
10
104.5500000000001
20
0.7500000000000534
10
42.471870000000074
20
0.75000000000002598
42
-0.41421356237308959
10
42.121870000000072
20
1.1000000000000207
10
42.121870000000079
20
1.1255000000000237
42
-0.41421356237309959
10
42.471870000000074
20
1.4755000000000211
0
LWPOLYLINE
5
114
100
AcDbEntity
8
0
100
AcDbPolyline
90
8
70
1
43
0.0
10
32.799999040000017
20
94.150000000000205
42
-0.41421356237313595
10
33.149999040000012
20
94.500000000000227
10
100.20000095999997
20
94.500000000000199
42
-0.41421356237309503
10
100.55000096000001
20
94.150000000000233
10
100.55000096000001
20
94.124498760000094
42
-0.41421356237309503
10
100.20000095999998
20
93.774498760000071
10
33.149999040000033
20
93.774498760000057
42
-0.41421356237309503
10
32.799999040000017
20
94.124498760000037
0
CIRCLE
5
115
100
AcDbEntity
8
0
100
AcDbCircle
10
61.912510159999997
20
20.525000860000016
30
2.4651903288156615e-31
40
1.7499990400000009
210
0
220
0
230
1
0
LWPOLYLINE
5
116
100
AcDbEntity
8
0
100
AcDbPolyline
90
8
70
1
43
0.0
10
200.25000000000009
20
0.75000000000011491
42
-0.4142135623730811
10
199.90000000000009
20
1.1000000000000996
10
199.90000000000009
20
1.1255000000001023
42
-0.41421356237322465
10
200.25000000000009
20
1.4755000000001004
10
262.32813000000016
20
1.4755000000001255
42
-0.41421356237299795
10
262.67813000000007
20
1.1255000000001336
10
262.67813000000007
20
1.1000000000001311
42
-0.41421356237316859
10
262.3281300000001
20
0.75000000000013212
0
CIRCLE
5
117
100
AcDbEntity
8
0
100
AcDbCircle
10
100.01250508
20
20.525000860000016
30
2.4651903288156615e-31
40
1.7499990400000009
210
0
220
0
230
1
0
CIRCLE
5
118
100
AcDbEntity
8
0
100
AcDbCircle
10
233.36250508000006
20
20.525000860000016
30
2.4651903288156615e-31
40
1.7499990400000009
210
0
220
0
230
1
0
LWPOLYLINE
5
119
100
AcDbEntity
8
0
100
AcDbPolyline
90
8
70
1
43
0.0
10
173.28375
20
13.399999999999999
42
-0.41421356237309503
10
172.78375
20
13.900000000000006
10
172.78375
20
18.109999999999999
42
-0.41421356237309503
10
173.28375
20
18.609999999999999
10
174.95375000000001
20
18.610000000000007
42
-0.41421356237309503
10
175.45375000000004
20
18.109999999999999
10
175.45375000000004
20
13.900000000000006
42
-0.41421356237309503
10
174.95375000000001
20
13.399999999999999
0
LWPOLYLINE
5
120
100
AcDbEntity
8
0
100
AcDbPolyline
90
8
70
1
43
0.0
10
177.98750000000001
20
34.474999999999994
42
-0.41421356237309503
10
178.48750000000001
20
34.974999999999994
10
192.98750000000001
20
34.975000000000009
42
-0.41421356237309503
10
193.48750000000001
20
34.474999999999994
10
193.48750000000001
20
22.675000000000001
42
-0.41421356237309503
10
192.98750000000001
20
22.174999999999994
10
178.48750000000001
20
22.174999999999994
42
-0.41421356237309503
10
177.98750000000001
20
22.675000000000001
0
LWPOLYLINE
5
121
100
AcDbEntity
8
0
100
AcDbPolyline
90
8
70
1
43
0.0
10
180.86875000000003
20
3.125
42
-0.41421356237309503
10
180.36875000000003
20
3.6250000000000071
10
180.36875000000003
20
15.424999999999995
42
-0.41421356237309503
10
180.86875000000003
20
15.924999999999994
10
195.36875000000003
20
15.925000000000002
42
-0.41421356237309503
10
195.86875000000003
20
15.424999999999995
10
195.86875000000003
20
3.6250000000000071
42
-0.41421356237309503
10
195.36875000000003
20
3.125
0
LWPOLYLINE
5
122
100
AcDbEntity
8
0
100
AcDbPolyline
90
8
70
1
43
0.0
10
174.4375
20
22.675000000000001
10
174.4375
20
34.474999999999994
42
0.41421356237309503
10
173.9375
20
34.975000000000009
10
159.4375
20
34.975000000000009
42
0.41421356237309503
10
158.9375
20
34.474999999999994
10
158.9375
20
22.675000000000001
42
0.41421356237309503
10
159.4375
20
22.174999999999994
10
173.9375
20
22.174999999999994
42
0.41421356237309503
0
LWPOLYLINE
5
123
100
AcDbEntity
8
0
100
AcDbPolyline
90
8
70
1
43
0.0
10
164.41249999999999
20
41.225000000000009
10
149.91250000000002
20
41.224999999999994
42
-0.41421356237309503
10
149.41249999999999
20
41.725000000000001
10
149.41249999999999
20
53.524999999999999
42
-0.41421356237309503
10
149.91250000000002
20
54.024999999999999
10
164.41249999999999
20
54.025000000000006
42
-0.41421356237309503
10
164.91250000000002
20
53.524999999999999
10
164.91250000000002
20
41.725000000000001
42
-0.41421356237309503
0
LWPOLYLINE
5
124
100
AcDbEntity
8
0
100
AcDbPolyline
90
8
70
1
43
0.0
10
212.53749999999999
20
22.675000000000001
42
-0.41421356237309503
10
212.03749999999999
20
22.174999999999994
10
197.53749999999999
20
22.174999999999994
42
-0.41421356237309503
10
197.03749999999999
20
22.675000000000001
10
197.03749999999999
20
34.474999999999994
42
-0.41421356237309503
10
197.53749999999999
20
34.974999999999994
10
212.03749999999999
20
34.975000000000009
42
-0.41421356237309503
10
212.53749999999999
20
34.474999999999994
0
LWPOLYLINE
5
125
100
AcDbEntity
8
0
100
AcDbPolyline
90
8
70
1
43
0.0
10
216.08750000000001
20
15.424999999999995
42
-0.41421356237309503
10
216.58750000000001
20
15.924999999999994
10
231.08750000000001
20
15.925000000000002
42
-0.41421356237309503
10
231.58750000000001
20
15.424999999999995
10
231.58750000000001
20
3.6250000000000071
42
-0.41421356237309503
10
231.08750000000001
20
3.125
10
216.58750000000001
20
3.125
42
-0.41421356237309503
10
216.08750000000001
20
3.6250000000000071
0
LWPOLYLINE
5
126
100
AcDbEntity
8
0
100
AcDbPolyline
90
8
70
1
43
0.0
10
202.95375000000004
20
18.610000000000007
42
-0.41421356237309503
10
203.45375000000004
20
18.109999999999999
10
203.45375000000004
20
13.900000000000006
42
-0.41421356237309503
10
202.95375000000004
20
13.399999999999999
10
201.28375000000003
20
13.399999999999999
42
-0.41421356237309503
10
200.78375
20
13.900000000000006
10
200.78375
20
18.109999999999999
42
-0.41421356237309503
10
201.28375000000003
20
18.609999999999999
0
LWPOLYLINE
5
127
100
AcDbEntity
8
0
100
AcDbPolyline
90
8
70
1
43
0.0
10
216.08750000000001
20
34.474999999999994
42
-0.41421356237309503
10
216.58750000000001
20
34.975000000000009
10
231.08750000000001
20
34.975000000000009
42
-0.41421356237309503
10
231.58750000000001
20
34.474999999999994
10
231.58750000000001
20
22.675000000000001
42
-0.41421356237309503
10
231.08750000000001
20
22.174999999999994
10
216.58750000000001
20
22.174999999999994
42
-0.41421356237309503
10
216.08750000000001
20
22.675000000000001
0
LWPOLYLINE
5
128
100
AcDbEntity
8
0
100
AcDbPolyline
90
8
70
1
43
0.0
10
222.0625
20
41.725000000000001
42
-0.41421356237309503
10
221.5625
20
41.225000000000009
10
207.0625
20
41.224999999999994
42
-0.41421356237309503
10
206.5625
20
41.725000000000001
10
206.5625
20
53.524999999999999
42
-0.41421356237309503
10
207.0625
20
54.024999999999999
10
221.5625
20
54.025000000000006
42
-0.41421356237309503
10
222.0625
20
53.524999999999999
0
LWPOLYLINE
5
129
100
AcDbEntity
8
0
100
AcDbPolyline
90
8
70
1
43
0.0
10
188.01249999999999
20
41.224999999999994
42
-0.41421356237309503
10
187.51249999999999
20
41.725000000000001
10
187.51249999999999
20
53.524999999999999
42
-0.41421356237309503
10
188.01249999999999
20
54.024999999999999
10
202.51249999999999
20
54.025000000000006
42
-0.41421356237309503
10
203.01249999999999
20
53.524999999999999
10
203.01249999999999
20
41.725000000000001
42
-0.41421356237309503
10
202.51249999999999
20
41.225000000000009
0
LWPOLYLINE
5
130
100
AcDbEntity
8
0
100
AcDbPolyline
90
8
70
1
43
0.0
10
154.88749999999999
20
3.125
10
140.38749999999999
20
3.125
42
-0.41421356237309503
10
139.88749999999999
20
3.6250000000000071
10
139.88749999999999
20
15.424999999999995
42
-0.41421356237309503
10
140.38749999999999
20
15.924999999999994
10
154.88749999999999
20
15.925000000000002
42
-0.41421356237309503
10
155.38749999999999
20
15.424999999999995
10
155.38749999999999
20
3.6250000000000071
42
-0.41421356237309503
0
LWPOLYLINE
5
131
100
AcDbEntity
8
0
100
AcDbPolyline
90
8
70
1
43
0.0
10
162.97250000000003
20
13.900000000000006
42
-0.41421356237309503
10
162.47250000000003
20
13.399999999999999
10
160.80250000000004
20
13.399999999999999
42
-0.41421356237309503
10
160.30250000000001
20
13.900000000000006
10
160.30250000000001
20
18.109999999999999
42
-0.41421356237309503
10
160.80250000000004
20
18.609999999999999
10
162.47250000000003
20
18.610000000000007
42
-0.41421356237309503
10
162.97250000000003
20
18.109999999999999
0
LWPOLYLINE
5
132
100
AcDbEntity
8
0
100
AcDbPolyline
90
8
70
1
43
0.0
10
183.46250000000001
20
41.225000000000009
10
168.96250000000003
20
41.224999999999994
42
-0.41421356237309503
10
168.46250000000001
20
41.725000000000001
10
168.46250000000001
20
53.524999999999999
42
-0.41421356237309503
10
168.96250000000003
20
54.024999999999999
10
183.46250000000001
20
54.025000000000006
42
-0.41421356237309503
10
183.96250000000003
20
53.524999999999999
10
183.96250000000003
20
41.725000000000001
42
-0.41421356237309503
0
LWPOLYLINE
5
133
100
AcDbEntity
8
0
100
AcDbPolyline
90
8
70
1
43
0.0
10
154.88749999999999
20
34.974999999999994
10
140.38749999999999
20
34.974999999999994
42
0.41421356237309503
10
139.88749999999999
20
34.474999999999994
10
139.88749999999999
20
22.675000000000001
42
0.41421356237309503
10
140.38749999999999
20
22.175000000000004
10
154.88749999999999
20
22.175000000000004
42
0.41421356237309503
10
155.38749999999999
20
22.675000000000001
10
155.38749999999999
20
34.474999999999994
42
0.41421356237309503
0
LWPOLYLINE
5
134
100
AcDbEntity
8
0
100
AcDbPolyline
90
8
70
1
43
0.0
10
245.87500000000003
20
79.825000000000003
42
-0.41421356237309503
10
245.375
20
79.325000000000003
10
230.87500000000003
20
79.324999999999989
42
-0.41421356237309503
10
230.375
20
79.825000000000003
10
230.375
20
91.625
42
-0.41421356237309503
10
230.87500000000003
20
92.125
10
245.375
20
92.125
42
-0.41421356237309503
10
245.87500000000003
20
91.625
0
LWPOLYLINE
5
135
100
AcDbEntity
8
0
100
AcDbPolyline
90
8
70
1
43
0.0
10
68.450000000000003
20
72.575000000000003
42
-0.41421356237309503
10
68.950000000000003
20
73.075000000000003
10
83.450000000000003
20
73.075000000000017
42
-0.41421356237309503
10
83.950000000000017
20
72.575000000000003
10
83.950000000000017
20
60.775000000000006
42
-0.41421356237309503
10
83.450000000000003
20
60.274999999999999
10
68.950000000000003
20
60.275000000000006
42
-0.41421356237309503
10
68.450000000000003
20
60.775000000000006
0
LWPOLYLINE
5
136
100
AcDbEntity
8
0
100
AcDbPolyline
90
8
70
1
43
0.0
10
240.61250000000001
20
73.075000000000017
42
-0.41421356237309503
10
241.11250000000001
20
72.575000000000003
10
241.11250000000001
20
60.775000000000006
42
-0.41421356237309503
10
240.61250000000001
20
60.274999999999999
10
226.11250000000001
20
60.274999999999999
42
-0.41421356237309503
10
225.61250000000001
20
60.775000000000006
10
225.61250000000001
20
72.575000000000003
42
-0.41421356237309503
10
226.11250000000001
20
73.075000000000003
0
LWPOLYLINE
5
137
100
AcDbEntity
8
0
100
AcDbPolyline
90
8
70
1
43
0.0
10
216.80000000000004
20
73.075000000000003
10
202.30000000000004
20
73.075000000000003
42
0.41421356237309503
10
201.80000000000004
20
72.575000000000003
10
201.80000000000004
20
60.775000000000006
42
0.41421356237309503
10
202.30000000000004
20
60.274999999999999
10
216.80000000000004
20
60.274999999999999
42
0.41421356237309503
10
217.30000000000004
20
60.775000000000006
10
217.30000000000004
20
72.575000000000003
42
0.41421356237309503
0
LWPOLYLINE
5
138
100
AcDbEntity
8
0
100
AcDbPolyline
90
8
70
1
43
0.0
10
134.97250000000003
20
18.109999999999999
10
134.97250000000003
20
13.900000000000006
42
-0.41421356237309503
10
134.4725
20
13.399999999999999
10
132.80250000000001
20
13.399999999999999
42
-0.41421356237309503
10
132.30250000000001
20
13.900000000000006
10
132.30250000000001
20
18.109999999999999
42
-0.41421356237309503
10
132.80250000000001
20
18.609999999999999
10
134.4725
20
18.610000000000007
42
-0.41421356237309503
0
LWPOLYLINE
5
139
100
AcDbEntity
8
0
100
AcDbPolyline
90
8
70
1
43
0.0
10
264.92500000000001
20
79.825000000000003
42
-0.41421356237309503
10
264.42500000000001
20
79.325000000000003
10
249.92500000000004
20
79.324999999999989
42
-0.41421356237309503
10
249.42500000000001
20
79.825000000000003
10
249.42500000000001
20
91.625
42
-0.41421356237309503
10
249.92500000000004
20
92.125
10
264.42500000000001
20
92.125
42
-0.41421356237309503
10
264.92500000000001
20
91.625
0
LWPOLYLINE
5
140
100
AcDbEntity
8
0
100
AcDbPolyline
90
8
70
1
43
0.0
10
126.09999999999999
20
60.274999999999999
42
-0.41421356237309503
10
125.59999999999999
20
60.775000000000006
10
125.59999999999999
20
72.575000000000003
42
-0.41421356237309503
10
126.09999999999999
20
73.075000000000003
10
140.59999999999999
20
73.074999999999989
42
-0.41421356237309503
10
141.09999999999999
20
72.575000000000003
10
141.10000000000002
20
60.775000000000006
42
-0.41421356237309503
10
140.59999999999999
20
60.274999999999999
0
LWPOLYLINE
5
141
100
AcDbEntity
8
0
100
AcDbPolyline
90
8
70
1
43
0.0
10
268.47500000000002
20
3.6250000000000071
10
268.47500000000002
20
15.424999999999995
42
-0.41421356237309503
10
268.97500000000002
20
15.924999999999994
10
283.47500000000002
20
15.925000000000002
42
-0.41421356237309503
10
283.97500000000002
20
15.424999999999995
10
283.97500000000002
20
3.6250000000000071
42
-0.41421356237309503
10
283.47500000000002
20
3.125
10
268.97500000000002
20
3.125
42
-0.41421356237309503
0
LWPOLYLINE
5
142
100
AcDbEntity
8
0
100
AcDbPolyline
90
8
70
1
43
0.0
10
283.97500000000002
20
60.775000000000006
42
-0.41421356237309503
10
283.47500000000002
20
60.274999999999999
10
268.97500000000002
20
60.274999999999999
42
-0.41421356237309503
10
268.47500000000002
20
60.775000000000006
10
268.47500000000002
20
72.575000000000003
42
-0.41421356237309503
10
268.97500000000002
20
73.075000000000003
10
283.47500000000002
20
73.075000000000017
42
-0.41421356237309503
10
283.97500000000002
20
72.575000000000003
0
LWPOLYLINE
5
143
100
AcDbEntity
8
0
100
AcDbPolyline
90
8
70
1
43
0.0
10
73.924999999999997
20
92.125
10
59.424999999999997
20
92.125
42
0.41421356237309503
10
58.924999999999997
20
91.625
10
58.924999999999997
20
79.825000000000003
42
0.41421356237309503
10
59.424999999999997
20
79.325000000000003
10
73.924999999999997
20
79.325000000000003
42
0.41421356237309503
10
74.424999999999997
20
79.825000000000003
10
74.424999999999997
20
91.625
42
0.41421356237309503
0
LWPOLYLINE
5
144
100
AcDbEntity
8
0
100
AcDbPolyline
90
8
70
1
43
0.0
10
69.662499999999994
20
3.6250000000000071
10
69.662499999999994
20
15.424999999999995
42
0.41421356237309503
10
69.162499999999994
20
15.924999999999994
10
54.662500000000009
20
15.924999999999994
42
0.41421356237309503
10
54.162500000000009
20
15.424999999999995
10
54.162500000000009
20
3.6250000000000071
42
0.41421356237309503
10
54.662500000000009
20
3.125
10
69.162499999999994
20
3.125
42
0.41421356237309503
0
LWPOLYLINE
5
145
100
AcDbEntity
8
0
100
AcDbPolyline
90
8
70
1
43
0.0
10
135.83750000000003
20
34.975000000000009
42
-0.41421356237309503
10
136.33750000000003
20
34.474999999999994
10
136.33750000000003
20
22.675000000000001
42
-0.41421356237309503
10
135.83750000000003
20
22.175000000000004
10
121.33750000000001
20
22.175000000000011
42
-0.41421356237309503
10
120.83750000000002
20
22.675000000000001
10
120.83750000000002
20
34.474999999999994
42
-0.41421356237309503
10
121.33750000000001
20
34.974999999999994
0
LWPOLYLINE
5
146
100
AcDbEntity
8
0
100
AcDbPolyline
90
8
70
1
43
0.0
10
73.712500000000006
20
41.225000000000009
42
-0.41421356237309503
10
73.212500000000006
20
41.725000000000001
10
73.212500000000006
20
53.524999999999999
42
-0.41421356237309503
10
73.712500000000006
20
54.024999999999999
10
88.212500000000006
20
54.025000000000006
42
-0.41421356237309503
10
88.71250000000002
20
53.524999999999999
10
88.712500000000006
20
41.725000000000001
42
-0.41421356237309503
10
88.212500000000006
20
41.225000000000009
0
LWPOLYLINE
5
147
100
AcDbEntity
8
0
100
AcDbPolyline
90
8
70
1
43
0.0
10
154.17500000000001
20
91.625
42
-0.41421356237309503
10
154.67500000000001
20
92.125
10
169.17500000000001
20
92.125
42
-0.41421356237309503
10
169.67500000000001
20
91.625
10
169.67500000000001
20
79.825000000000003
42
-0.41421356237309503
10
169.17500000000001
20
79.325000000000003
10
154.67500000000001
20
79.325000000000017
42
-0.41421356237309503
10
154.17500000000001
20
79.825000000000003
0
LWPOLYLINE
5
148
100
AcDbEntity
8
0
100
AcDbPolyline
90
8
70
1
43
0.0
10
126.31250000000001
20
54.024999999999999
10
111.8125
20
54.024999999999999
42
0.41421356237309503
10
111.31250000000001
20
53.524999999999999
10
111.31250000000001
20
41.725000000000001
42
0.41421356237309503
10
111.8125
20
41.225000000000009
10
126.31250000000001
20
41.225000000000009
42
0.41421356237309503
10
126.8125
20
41.725000000000001
10
126.8125
20
53.524999999999999
42
0.41421356237309503
0
LWPOLYLINE
5
149
100
AcDbEntity
8
0
100
AcDbPolyline
90
8
70
1
43
0.0
10
69.162499999999994
20
54.024999999999999
10
54.662500000000009
20
54.024999999999999
42
0.41421356237309503
10
54.162500000000009
20
53.524999999999999
10
54.162500000000009
20
41.725000000000001
42
0.41421356237309503
10
54.662500000000009
20
41.225000000000009
10
69.162499999999994
20
41.225000000000009
42
0.41421356237309503
10
69.662499999999994
20
41.725000000000001
10
69.662499999999994
20
53.524999999999999
42
0.41421356237309503
0
LWPOLYLINE
5
150
100
AcDbEntity
8
0
100
AcDbPolyline
90
8
70
1
43
0.0
10
257.78125
20
22.675000000000001
42
-0.41421356237309503
10
257.28125
20
22.175000000000004
10
242.78125000000003
20
22.174999999999994
42
-0.41421356237309503
10
242.28125000000003
20
22.675000000000001
10
242.28125000000003
20
34.474999999999994
42
-0.41421356237309503
10
242.78125000000003
20
34.975000000000009
10
257.28125
20
34.975000000000009
42
-0.41421356237309503
10
257.78125
20
34.474999999999994
0
LWPOLYLINE
5
151
100
AcDbEntity
8
0
100
AcDbPolyline
90
8
70
1
43
0.0
10
54.875000000000007
20
92.124999999999986
42
-0.41421356237309503
10
55.375000000000007
20
91.625
10
55.375000000000007
20
79.825000000000003
42
-0.41421356237309503
10
54.875000000000007
20
79.325000000000003
10
40.375000000000007
20
79.325000000000003
42
-0.41421356237309503
10
39.875000000000007
20
79.825000000000003
10
39.875
20
91.625
42
-0.41421356237309503
10
40.375000000000007
20
92.125
0
LWPOLYLINE
5
152
100
AcDbEntity
8
0
100
AcDbPolyline
90
8
70
1
43
0.0
10
179.20000000000002
20
60.775000000000006
42
-0.41421356237309503
10
178.70000000000002
20
60.274999999999999
10
164.19999999999999
20
60.274999999999999
42
-0.41421356237309503
10
163.69999999999999
20
60.775000000000006
10
163.69999999999999
20
72.575000000000003
42
-0.41421356237309503
10
164.19999999999999
20
73.075000000000003
10
178.70000000000002
20
73.074999999999974
42
-0.41421356237309503
10
179.19999999999999
20
72.575000000000003
0
LWPOLYLINE
5
153
100
AcDbEntity
8
0
100
AcDbPolyline
90
8
70
1
43
0.0
10
49.900000000000006
20
60.275000000000006
42
-0.41421356237309503
10
49.400000000000006
20
60.775000000000006
10
49.400000000000006
20
72.575000000000003
42
-0.41421356237309503
10
49.900000000000006
20
73.075000000000003
10
64.400000000000006
20
73.075000000000003
42
-0.41421356237309503
10
64.900000000000006
20
72.575000000000003
10
64.90000000000002
20
60.775000000000006
42
-0.41421356237309503
10
64.400000000000006
20
60.274999999999999
0
LWPOLYLINE
5
154
100
AcDbEntity
8
0
100
AcDbPolyline
90
8
70
1
43
0.0
10
145.36250000000001
20
54.025000000000006
42
-0.41421356237309503
10
145.86250000000004
20
53.524999999999999
10
145.86250000000004
20
41.725000000000001
42
-0.41421356237309503
10
145.36250000000001
20
41.225000000000009
10
130.86250000000001
20
41.224999999999994
42
-0.41421356237309503
10
130.36250000000001
20
41.725000000000001
10
130.36250000000001
20
53.524999999999999
42
-0.41421356237309503
10
130.86250000000001
20
54.024999999999999
0
LWPOLYLINE
5
155
100
AcDbEntity
8
0
100
AcDbPolyline
90
8
70
1
43
0.0
10
283.47500000000002
20
92.125
42
-0.41421356237309503
10
283.97500000000002
20
91.625
10
283.97500000000002
20
79.825000000000003
42
-0.41421356237309503
10
283.47500000000002
20
79.325000000000003
10
268.97500000000002
20
79.324999999999989
42
-0.41421356237309503
10
268.47500000000002
20
79.825000000000003
10
268.47500000000002
20
91.625
42
-0.41421356237309503
10
268.97500000000002
20
92.125
0
LWPOLYLINE
5
156
100
AcDbEntity
8
0
100
AcDbPolyline
90
8
70
1
43
0.0
10
302.52499999999998
20
73.075000000000003
10
288.02499999999998
20
73.075000000000003
42
0.41421356237309503
10
287.52499999999998
20
72.575000000000003
10
287.52499999999998
20
60.775000000000006
42
0.41421356237309503
10
288.02499999999998
20
60.274999999999999
10
302.52499999999998
20
60.274999999999999
42
0.41421356237309503
10
303.02499999999998
20
60.775000000000006
10
303.02499999999998
20
72.575000000000003
42
0.41421356237309503
0
LWPOLYLINE
5
157
100
AcDbEntity
8
0
100
AcDbPolyline
90
8
70
1
43
0.0
10
45.850000000000001
20
60.775000000000006
10
45.850000000000001
20
72.575000000000003
42
0.41421356237309503
10
45.350000000000001
20
73.075000000000003
10
30.850000000000005
20
73.075000000000003
42
0.41421356237309503
10
30.350000000000005
20
72.575000000000003
10
30.350000000000005
20
60.775000000000006
42
0.41421356237309503
10
30.850000000000005
20
60.274999999999999
10
45.350000000000001
20
60.274999999999999
42
0.41421356237309503
0
LWPOLYLINE
5
158
100
AcDbEntity
8
0
100
AcDbPolyline
90
8
70
1
43
0.0
10
302.52499999999998
20
79.325000000000003
10
288.02499999999998
20
79.324999999999989
42
-0.41421356237309503
10
287.52499999999998
20
79.825000000000003
10
287.52499999999998
20
91.625
42
-0.41421356237309503
10
288.02499999999998
20
92.125
10
302.52499999999998
20
92.125
42
-0.41421356237309503
10
303.02499999999998
20
91.625
10
303.02499999999998
20
79.825000000000003
42
-0.41421356237309503
0
LWPOLYLINE
5
159
100
AcDbEntity
8
0
100
AcDbPolyline
90
8
70
1
43
0.0
10
264.42500000000001
20
3.125
10
249.92500000000004
20
3.125
42
-0.41421356237309503
10
249.42500000000001
20
3.6250000000000071
10
249.42500000000001
20
15.424999999999995
42
-0.41421356237309503
10
249.92500000000004
20
15.924999999999994
10
264.42500000000001
20
15.925000000000002
42
-0.41421356237309503
10
264.92500000000001
20
15.424999999999995
10
264.92500000000001
20
3.6250000000000071
42
-0.41421356237309503
0
LWPOLYLINE
5
160
100
AcDbEntity
8
0
100
AcDbPolyline
90
8
70
1
43
0.0
10
50.612500000000004
20
41.725000000000001
42
-0.41421356237309503
10
50.112500000000004
20
41.225000000000009
10
35.612499999999997
20
41.225000000000009
42
-0.41421356237309503
10
35.112499999999997
20
41.725000000000001
10
35.112499999999997
20
53.524999999999999
42
-0.41421356237309503
10
35.612499999999997
20
54.024999999999999
10
50.112500000000004
20
54.024999999999999
42
-0.41421356237309503
10
50.612500000000004
20
53.524999999999999
0
LWPOLYLINE
5
161
100
AcDbEntity
8
0
100
AcDbPolyline
90
8
70
1
43
0.0
10
192.27500000000003
20
79.825000000000003
10
192.27500000000003
20
91.625
42
-0.41421356237309503
10
192.77500000000003
20
92.125
10
207.27500000000003
20
92.125
42
-0.41421356237309503
10
207.77500000000003
20
91.625
10
207.77500000000003
20
79.825000000000003
42
-0.41421356237309503
10
207.27500000000003
20
79.325000000000003
10
192.77500000000003
20
79.324999999999989
42
-0.41421356237309503
0
LWPOLYLINE
5
162
100
AcDbEntity
8
0
100
AcDbPolyline
90
8
70
1
43
0.0
10
226.32499999999999
20
92.125
10
211.82500000000002
20
92.125
42
0.41421356237309503
10
211.32499999999999
20
91.625
10
211.32499999999999
20
79.825000000000003
42
0.41421356237309503
10
211.82500000000002
20
79.325000000000003
10
226.32499999999999
20
79.325000000000003
42
0.41421356237309503
10
226.82500000000002
20
79.825000000000003
10
226.82500000000002
20
91.625
42
0.41421356237309503
0
LWPOLYLINE
5
163
100
AcDbEntity
8
0
100
AcDbPolyline
90
8
70
1
43
0.0
10
45.850000000000009
20
3.6250000000000071
42
-0.41421356237309503
10
45.350000000000001
20
3.125
10
30.850000000000005
20
3.1250000000000044
42
-0.41421356237309503
10
30.350000000000001
20
3.6250000000000071
10
30.350000000000005
20
15.424999999999995
42
-0.41421356237309503
10
30.850000000000005
20
15.924999999999994
10
45.350000000000001
20
15.924999999999994
42
-0.41421356237309503
10
45.850000000000001
20
15.424999999999995
0
LWPOLYLINE
5
164
100
AcDbEntity
8
0
100
AcDbPolyline
90
8
70
1
43
0.0
10
34.096249999999991
20
24.199999999999999
42
-0.41421356237309503
10
34.596249999999998
20
24.700000000000006
10
36.266249999999999
20
24.699999999999996
42
-0.41421356237309503
10
36.766249999999999
20
24.199999999999999
10
36.766249999999999
20
19.989999999999995
42
-0.41421356237309503
10
36.266249999999999
20
19.489999999999998
10
34.596249999999998
20
19.489999999999998
42
-0.41421356237309503
10
34.096249999999998
20
19.989999999999995
0
LWPOLYLINE
5
165
100
AcDbEntity
8
0
100
AcDbPolyline
90
8
70
1
43
0.0
10
112.02500000000001
20
79.325000000000003
10
97.525000000000006
20
79.324999999999989
42
-0.41421356237309503
10
97.025000000000006
20
79.825000000000003
10
97.025000000000006
20
91.625
42
-0.41421356237309503
10
97.525000000000006
20
92.125
10
112.02500000000001
20
92.125
42
-0.41421356237309503
10
112.52500000000001
20
91.625
10
112.52500000000001
20
79.825000000000003
42
-0.41421356237309503
0
LWPOLYLINE
5
166
100
AcDbEntity
8
0
100
AcDbPolyline
90
8
70
1
43
0.0
10
29.181249999999999
20
22.675000000000001
10
29.181249999999999
20
34.474999999999994
42
0.41421356237309503
10
28.681249999999999
20
34.974999999999994
10
14.18125
20
34.974999999999994
42
0.41421356237309503
10
13.68125
20
34.474999999999994
10
13.68125
20
22.675000000000001
42
0.41421356237309503
10
14.18125
20
22.175000000000004
10
28.681249999999999
20
22.174999999999994
42
0.41421356237309503
0
LWPOLYLINE
5
167
100
AcDbEntity
8
0
100
AcDbPolyline
90
8
70
1
43
0.0
10
122.05000000000001
20
60.775000000000006
42
-0.41421356237309503
10
121.55000000000001
20
60.274999999999999
10
107.05
20
60.274999999999999
42
-0.41421356237309503
10
106.55
20
60.775000000000006
10
106.55000000000001
20
72.575000000000003
42
-0.41421356237309503
10
107.05
20
73.075000000000003
10
121.55000000000001
20
73.075000000000017
42
-0.41421356237309503
10
122.05000000000001
20
72.575000000000003
0
LWPOLYLINE
5
168
100
AcDbEntity
8
0
100
AcDbPolyline
90
8
70
1
43
0.0
10
116.78750000000001
20
34.974999999999987
42
-0.41421356237309503
10
117.28749999999999
20
34.474999999999994
10
117.28750000000002
20
22.675000000000001
42
-0.41421356237309503
10
116.78750000000001
20
22.174999999999994
10
102.28749999999999
20
22.174999999999994
42
-0.41421356237309503
10
101.78749999999999
20
22.675000000000001
10
101.78750000000001
20
34.474999999999994
42
-0.41421356237309503
10
102.28749999999999
20
34.974999999999994
0
LWPOLYLINE
5
169
100
AcDbEntity
8
0
100
AcDbPolyline
90
8
70
1
43
0.0
10
302.52499999999998
20
54.024999999999999
10
288.02499999999998
20
54.024999999999999
42
0.41421356237309503
10
287.52499999999998
20
53.524999999999999
10
287.52499999999998
20
41.725000000000001
42
0.41421356237309503
10
288.02499999999998
20
41.225000000000009
10
302.52499999999998
20
41.225000000000009
42
0.41421356237309503
10
303.02499999999998
20
41.725000000000001
10
303.02499999999998
20
53.524999999999999
42
0.41421356237309503
0
LWPOLYLINE
5
170
100
AcDbEntity
8
0
100
AcDbPolyline
90
8
70
1
43
0.0
10
44.63750000000001
20
22.675000000000001
10
44.63750000000001
20
34.474999999999994
42
-0.41421356237309503
10
45.13750000000001
20
34.974999999999994
10
59.63750000000001
20
34.974999999999994
42
-0.41421356237309503
10
60.13750000000001
20
34.474999999999994
10
60.137500000000017
20
22.675000000000001
42
-0.41421356237309503
10
59.63750000000001
20
22.174999999999994
10
45.13750000000001
20
22.175000000000004
42
-0.41421356237309503
0
LWPOLYLINE
5
171
100
AcDbEntity
8
0
100
AcDbPolyline
90
8
70
1
43
0.0
10
188.72500000000002
20
79.825000000000003
42
-0.41421356237309503
10
188.22500000000002
20
79.325000000000003
10
173.72499999999999
20
79.324999999999989
42
-0.41421356237309503
10
173.22499999999997
20
79.825000000000003
10
173.22499999999997
20
91.625
42
-0.41421356237309503
10
173.72499999999999
20
92.125
10
188.22500000000002
20
92.124999999999972
42
-0.41421356237309503
10
188.72499999999999
20
91.625
0
LWPOLYLINE
5
172
100
AcDbEntity
8
0
100
AcDbPolyline
90
8
70
1
43
0.0
10
249.42500000000001
20
72.575000000000003
42
-0.41421356237309503
10
249.92500000000004
20
73.075000000000003
10
264.42500000000001
20
73.075000000000017
42
-0.41421356237309503
10
264.92500000000001
20
72.575000000000003
10
264.92500000000001
20
60.775000000000006
42
-0.41421356237309503
10
264.42500000000001
20
60.274999999999999
10
249.92500000000004
20
60.274999999999999
42
-0.41421356237309503
10
249.42500000000001
20
60.775000000000006
0
LWPOLYLINE
5
173
100
AcDbEntity
8
0
100
AcDbPolyline
90
8
70
1
43
0.0
10
159.65000000000001
20
73.074999999999989
42
-0.41421356237309503
10
160.15000000000001
20
72.575000000000003
10
160.15000000000001
20
60.775000000000006
42
-0.41421356237309503
10
159.65000000000001
20
60.274999999999999
10
145.15000000000001
20
60.27500000000002
42
-0.41421356237309503
10
144.65000000000001
20
60.775000000000006
10
144.65000000000001
20
72.575000000000003
42
-0.41421356237309503
10
145.15000000000001
20
73.075000000000003
0
LWPOLYLINE
5
174
100
AcDbEntity
8
0
100
AcDbPolyline
90
8
70
1
43
0.0
10
116.55875
20
18.109999999999999
10
116.55875000000002
20
13.900000000000006
42
0.41421356237309503
10
117.05875
20
13.399999999999999
10
118.72875000000001
20
13.399999999999999
42
0.41421356237309503
10
119.22875000000002
20
13.900000000000006
10
119.22875000000002
20
18.109999999999999
42
0.41421356237309503
10
118.72875000000001
20
18.609999999999999
10
117.05875
20
18.609999999999999
42
0.41421356237309503
0
LWPOLYLINE
5
175
100
AcDbEntity
8
0
100
AcDbPolyline
90
8
70
1
43
0.0
10
8.2662499999999994
20
24.699999999999996
42
-0.41421356237309503
10
8.7662499999999994
20
24.199999999999999
10
8.7662499999999977
20
19.989999999999995
42
-0.41421356237309503
10
8.2662499999999994
20
19.489999999999998
10
6.5962500000000013
20
19.489999999999995
42
-0.41421356237309503
10
6.0962500000000013
20
19.989999999999995
10
6.0962499999999942
20
24.199999999999999
42
-0.41421356237309503
10
6.5962500000000013
20
24.700000000000006
0
LWPOLYLINE
5
176
100
AcDbEntity
8
0
100
AcDbPolyline
90
8
70
1
43
0.0
10
21.537500000000001
20
15.924999999999994
42
-0.41421356237309503
10
22.037499999999998
20
15.424999999999995
10
22.037500000000009
20
3.6250000000000071
42
-0.41421356237309503
10
21.537500000000001
20
3.125
10
7.0374999999999996
20
3.1250000000000067
42
-0.41421356237309503
10
6.5374999999999996
20
3.6250000000000071
10
6.5375000000000014
20
15.424999999999995
42
-0.41421356237309503
10
7.0374999999999988
20
15.924999999999994
0
LWPOLYLINE
5
177
100
AcDbEntity
8
0
100
AcDbPolyline
90
8
70
1
43
0.0
10
252.51875000000001
20
54.025000000000006
42
-0.41421356237309503
10
253.01875000000001
20
53.524999999999999
10
253.01875000000001
20
41.725000000000001
42
-0.41421356237309503
10
252.51875000000001
20
41.225000000000009
10
238.01875000000001
20
41.224999999999994
42
-0.41421356237309503
10
237.51875000000001
20
41.725000000000001
10
237.51875000000001
20
53.524999999999999
42
-0.41421356237309503
10
238.01875000000001
20
54.024999999999999
0
LWPOLYLINE
5
178
100
AcDbEntity
8
0
100
AcDbPolyline
90
8
70
1
43
0.0
10
268.47500000000002
20
53.524999999999999
42
-0.41421356237309503
10
268.97500000000002
20
54.024999999999999
10
283.47500000000002
20
54.025000000000006
42
-0.41421356237309503
10
283.97500000000002
20
53.524999999999999
10
283.97500000000002
20
41.725000000000001
42
-0.41421356237309503
10
283.47500000000002
20
41.225000000000009
10
268.97500000000002
20
41.224999999999994
42
-0.41421356237309503
10
268.47500000000002
20
41.725000000000001
0
LWPOLYLINE
5
179
100
AcDbEntity
8
0
100
AcDbPolyline
90
8
70
1
43
0.0
10
9.4187499999999993
20
41.225000000000009
42
-0.41421356237309503
10
8.9187499999999993
20
41.725000000000001
10
8.9187500000000028
20
53.524999999999999
42
-0.41421356237309503
10
9.4187499999999993
20
54.024999999999999
10
23.918750000000003
20
54.024999999999999
42
-0.41421356237309503
10
24.418749999999999
20
53.524999999999999
10
24.418749999999999
20
41.725000000000001
42
-0.41421356237309503
10
23.918750000000003
20
41.225000000000009
0
LWPOLYLINE
5
180
100
AcDbEntity
8
0
100
AcDbPolyline
90
8
70
1
43
0.0
10
63.6875
20
34.474999999999994
42
-0.41421356237309503
10
64.1875
20
34.974999999999994
10
78.6875
20
34.974999999999994
42
-0.41421356237309503
10
79.1875
20
34.474999999999994
10
79.1875
20
22.675000000000001
42
-0.41421356237309503
10
78.6875
20
22.175000000000004
10
64.1875
20
22.175000000000004
42
-0.41421356237309503
10
63.6875
20
22.675000000000001
0
LWPOLYLINE
5
181
100
AcDbEntity
8
0
100
AcDbPolyline
90
8
70
1
43
0.0
10
183.25
20
60.275000000000034
42
-0.41421356237309503
10
182.75000000000003
20
60.775000000000006
10
182.75
20
72.575000000000003
42
-0.41421356237309503
10
183.25
20
73.075000000000003
10
197.75000000000003
20
73.075000000000017
42
-0.41421356237309503
10
198.25000000000003
20
72.575000000000003
10
198.25000000000003
20
60.775000000000006
42
-0.41421356237309503
10
197.75000000000003
20
60.274999999999999
0
LWPOLYLINE
5
182
100
AcDbEntity
8
0
100
AcDbPolyline
90
8
70
1
43
0.0
10
97.737499999999997
20
34.975000000000009
42
-0.41421356237309503
10
98.237500000000011
20
34.474999999999994
10
98.237500000000011
20
22.675000000000001
42
-0.41421356237309503
10
97.737499999999997
20
22.174999999999994
10
83.237500000000011
20
22.174999999999994
42
-0.41421356237309503
10
82.737499999999997
20
22.675000000000001
10
82.737499999999997
20
34.474999999999994
42
-0.41421356237309503
10
83.237500000000011
20
34.974999999999994
0
LWPOLYLINE
5
183
100
AcDbEntity
8
0
100
AcDbPolyline
90
8
70
1
43
0.0
10
22.037500000000009
20
60.775000000000006
42
-0.41421356237309503
10
21.537500000000001
20
60.274999999999999
10
7.0374999999999996
20
60.275000000000006
42
-0.41421356237309503
10
6.5374999999999996
20
60.775000000000006
10
6.5375000000000014
20
72.575000000000003
42
-0.41421356237309503
10
7.0374999999999988
20
73.075000000000003
10
21.537500000000001
20
73.075000000000017
42
-0.41421356237309503
10
22.037500000000001
20
72.575000000000003
0
LWPOLYLINE
5
184
100
AcDbEntity
8
0
100
AcDbPolyline
90
8
70
1
43
0.0
10
16.774999999999999
20
92.125
42
-0.41421356237309503
10
17.274999999999999
20
91.625
10
17.274999999999999
20
79.825000000000003
42
-0.41421356237309503
10
16.774999999999999
20
79.325000000000003
10
2.2749999999999999
20
79.325000000000003
42
-0.41421356237309503
10
1.7749999999999999
20
79.825000000000003
10
1.774999999999993
20
91.625
42
-0.41421356237309503
10
2.2750000000000004
20
92.125
0
LWPOLYLINE
5
185
100
AcDbEntity
8
0
100
AcDbPolyline
90
8
70
1
43
0.0
10
35.825000000000003
20
92.125
10
21.324999999999999
20
92.125
42
0.41421356237309503
10
20.824999999999999
20
91.625
10
20.824999999999999
20
79.825000000000003
42
0.41421356237309503
10
21.324999999999999
20
79.325000000000003
10
35.825000000000003
20
79.325000000000003
42
0.41421356237309503
10
36.325000000000003
20
79.825000000000003
10
36.325000000000003
20
91.625
42
0.41421356237309503
0
LWPOLYLINE
5
186
100
AcDbEntity
8
0
100
AcDbPolyline
90
8
70
1
43
0.0
10
131.57499999999999
20
79.825000000000003
42
-0.41421356237309503
10
131.07499999999999
20
79.325000000000003
10
116.575
20
79.325000000000017
42
-0.41421356237309503
10
116.07500000000002
20
79.825000000000003
10
116.075
20
91.625
42
-0.41421356237309503
10
116.575
20
92.125
10
131.07499999999999
20
92.124999999999986
42
-0.41421356237309503
10
131.57499999999999
20
91.625
0
LWPOLYLINE
5
187
100
AcDbEntity
8
0
100
AcDbPolyline
90
8
70
1
43
0.0
10
107.76250000000002
20
41.725000000000001
10
107.76250000000002
20
53.524999999999999
42
0.41421356237309503
10
107.2625
20
54.024999999999999
10
92.762500000000017
20
54.024999999999999
42
0.41421356237309503
10
92.262500000000003
20
53.524999999999999
10
92.262500000000003
20
41.725000000000001
42
0.41421356237309503
10
92.762500000000017
20
41.225000000000009
10
107.2625
20
41.225000000000009
42
0.41421356237309503
0
LWPOLYLINE
5
188
100
AcDbEntity
8
0
100
AcDbPolyline
90
8
70
1
43
0.0
10
268.97500000000002
20
22.174999999999994
42
-0.41421356237309503
10
268.47500000000002
20
22.675000000000001
10
268.47500000000002
20
34.474999999999994
42
-0.41421356237309503
10
268.97500000000002
20
34.975000000000009
10
283.47500000000002
20
34.975000000000009
42
-0.41421356237309503
10
283.97500000000002
20
34.474999999999994
10
283.97500000000002
20
22.675000000000001
42
-0.41421356237309503
10
283.47500000000002
20
22.175000000000004
0
LWPOLYLINE
5
189
100
AcDbEntity
8
0
100
AcDbPolyline
90
8
70
1
43
0.0
10
102.5
20
73.075000000000017
42
-0.41421356237309503
10
103
20
72.575000000000003
10
103
20
60.775000000000006
42
-0.41421356237309503
10
102.5
20
60.274999999999999
10
88
20
60.274999999999999
42
-0.41421356237309503
10
87.5
20
60.775000000000006
10
87.5
20
72.575000000000003
42
-0.41421356237309503
10
88
20
73.075000000000003
0
LWPOLYLINE
5
190
100
AcDbEntity
8
0
100
AcDbPolyline
90
8
70
1
43
0.0
10
287.52499999999998
20
22.675000000000001
10
287.52499999999998
20
34.474999999999994
42
-0.41421356237309503
10
288.02499999999998
20
34.974999999999994
10
302.52499999999998
20
34.975000000000009
42
-0.41421356237309503
10
303.02499999999998
20
34.474999999999994
10
303.02499999999998
20
22.675000000000001
42
-0.41421356237309503
10
302.52499999999998
20
22.174999999999994
10
288.02499999999998
20
22.174999999999994
42
-0.41421356237309503
0
LWPOLYLINE
5
191
100
AcDbEntity
8
0
100
AcDbPolyline
90
8
70
1
43
0.0
10
93.474999999999994
20
79.825000000000003
10
93.474999999999994
20
91.625
42
0.41421356237309503
10
92.974999999999994
20
92.125
10
78.474999999999994
20
92.125
42
0.41421356237309503
10
77.974999999999994
20
91.625
10
77.974999999999994
20
79.825000000000003
42
0.41421356237309503
10
78.474999999999994
20
79.325000000000003
10
92.974999999999994
20
79.325000000000003
42
0.41421356237309503
0
LWPOLYLINE
5
192
100
AcDbEntity
8
0
100
AcDbPolyline
90
8
70
1
43
0.0
10
88.228750000000019
20
18.109999999999999
10
88.228750000000019
20
13.900000000000006
42
-0.41421356237309503
10
87.728750000000005
20
13.399999999999999
10
86.058750000000003
20
13.399999999999999
42
-0.41421356237309503
10
85.558750000000003
20
13.900000000000006
10
85.558750000000003
20
18.109999999999999
42
-0.41421356237309503
10
86.058750000000003
20
18.609999999999999
10
87.728750000000005
20
18.610000000000007
42
-0.41421356237309503
0
LWPOLYLINE
5
193
100
AcDbEntity
8
0
100
AcDbPolyline
90
8
70
1
43
0.0
10
288.02499999999998
20
3.125
42
-0.41421356237309503
10
287.52499999999998
20
3.6250000000000071
10
287.52499999999998
20
15.424999999999995
42
-0.41421356237309503
10
288.02499999999998
20
15.924999999999994
10
302.52499999999998
20
15.925000000000002
42
-0.41421356237309503
10
303.02499999999998
20
15.424999999999995
10
303.02499999999998
20
3.6250000000000071
42
-0.41421356237309503
10
302.52499999999998
20
3.125
0
LWPOLYLINE
5
194
100
AcDbEntity
8
0
100
AcDbPolyline
90
8
70
1
43
0.0
10
109.64375000000001
20
15.924999999999994
10
95.143749999999997
20
15.924999999999994
42
0.41421356237309503
10
94.643750000000011
20
15.424999999999995
10
94.643749999999983
20
3.6250000000000071
42
0.41421356237309503
10
95.143749999999997
20
3.125
10
109.64375000000001
20
3.125
42
0.41421356237309503
10
110.14375000000001
20
3.6250000000000071
10
110.14375000000001
20
15.424999999999995
42
0.41421356237309503
0
LWPOLYLINE
5
195
100
AcDbEntity
8
0
100
AcDbPolyline
90
8
70
1
43
0.0
10
150.62500000000003
20
79.825000000000003
10
150.62500000000003
20
91.625
42
0.41421356237309503
10
150.125
20
92.125
10
135.625
20
92.125
42
0.41421356237309503
10
135.125
20
91.625
10
135.125
20
79.825000000000003
42
0.41421356237309503
10
135.625
20
79.325000000000003
10
150.125
20
79.325000000000003
42
0.41421356237309503
0
LWPOLYLINE
5
196
100
AcDbEntity
8
0
100
AcDbPolyline
90
8
70
1
43
0.0
10
257.93374999999997
20
39.039999999999999
10
257.93374999999997
20
43.25
42
-0.41421356237309503
10
258.43374999999997
20
43.75
10
260.10374999999999
20
43.750000000000007
42
-0.41421356237309503
10
260.60374999999999
20
43.25
10
260.60374999999999
20
39.039999999999999
42
-0.41421356237309503
10
260.10374999999999
20
38.539999999999999
10
258.43374999999997
20
38.539999999999992
42
-0.41421356237309503
0
LWPOLYLINE
5
197
100
AcDbEntity
8
0
100
AcDbPolyline
90
8
70
1
43
0.0
10
232.60374999999999
20
39.039999999999999
10
232.60374999999999
20
43.25
42
0.41421356237309503
10
232.10374999999999
20
43.75
10
230.43375
20
43.75
42
0.41421356237309503
10
229.93375
20
43.25
10
229.93375
20
39.039999999999999
42
0.41421356237309503
10
230.43375
20
38.539999999999999
10
232.10374999999999
20
38.539999999999999
42
0.41421356237309503
0
ENDSEC
0
SECTION
2
OBJECTS
0
DICTIONARY
5
C
100
AcDbDictionary
3
ACAD_GROUP
350
D
3
ACAD_MLINESTYLE
350
17
0
DICTIONARY
5
D
100
AcDbDictionary
0
DICTIONARY
5
1A
330
C
100
AcDbDictionary
0
DICTIONARY
5
17
100
AcDbDictionary
0
ENDSEC
0
EOF
